# Blender v2.75 (sub 0) OBJ File: 'Enemy4.blend'
# www.blender.org
mtllib LoPoly.mtl
o Cube.002_Cube.004
v 0.515210 -0.234877 -2.244751
v 0.107399 -0.216697 2.244751
v 0.088727 -0.200442 2.244752
v 0.378886 0.284047 -2.178372
v 0.515211 0.227212 -2.244750
v 0.107399 -0.207659 2.244753
v 0.088727 -0.221008 2.244751
v 0.378886 -0.279390 -2.244752
v 0.515210 -0.234877 -0.994636
v 0.378886 -0.279390 -0.994637
v 0.378886 0.166052 -0.994636
v 0.515210 0.109216 -0.994635
v 0.189443 -0.279390 -2.244752
v 0.048492 -0.226184 2.244751
v 0.189443 0.323635 -1.835417
v 0.048492 -0.195266 2.244752
v 0.189443 -0.279390 -0.994637
v 0.189443 0.306736 -0.994636
v 0.515210 -0.234877 0.021308
v 0.378886 0.096176 0.005864
v 0.515210 0.014782 0.021308
v 0.378886 -0.279390 0.005863
v 0.189443 -0.279390 0.005863
v 0.189443 0.096176 0.005864
v 0.189443 0.284047 -2.178372
v 0.469062 -0.192552 -2.244751
v 0.469062 0.186325 -2.244751
v 0.347447 -0.235775 -2.244752
v 0.347447 0.239952 -2.244751
v 0.213151 -0.235775 -2.244752
v 0.213151 0.239952 -2.244751
v 0.380271 -0.132371 -2.377495
v 0.380271 0.128725 -2.377494
v 0.315599 -0.157522 -2.377495
v 0.315599 0.160838 -2.377494
v 0.225728 -0.157522 -2.377495
v 0.225728 0.160838 -2.377494
v 0.583059 -0.136874 0.168900
v 0.583059 -0.082865 0.168900
v 0.628124 -0.049696 -1.626850
v 0.590919 0.088343 -2.229724
v 0.590919 -0.170043 -2.229724
v 0.628124 -0.170043 -1.626850
v 1.463933 -0.094800 -0.635183
v 1.463933 -0.125884 -0.635183
v 1.326284 -0.094114 -1.985151
v 1.326284 -0.126570 -1.985151
v 1.862499 -0.101884 -1.612861
v 1.862499 -0.118091 -1.612861
v 1.862499 -0.101884 -2.503725
v 1.862499 -0.118091 -2.503725
v 0.189443 0.284047 -2.244751
v 0.378886 0.284047 -2.244751
v 0.213151 0.239952 -2.244751
v 0.347447 0.239952 -2.244751
v 0.210558 -0.190089 1.795393
v 0.424506 -0.163482 1.066148
v 0.210558 -0.166061 1.795394
v 0.424506 -0.124463 1.066149
v 0.323758 -0.089646 1.065131
v 0.122845 -0.041529 1.063725
v 0.241778 -0.043984 1.063797
v 0.216194 -0.148316 1.651586
v 0.166370 -0.121071 1.645651
v 0.086263 -0.117169 1.644801
v 0.217014 -0.221584 1.647117
v 0.166698 -0.236696 1.643118
v 0.086432 -0.240506 1.642110
v 0.241870 -0.251821 1.063086
v 0.323971 -0.226352 1.063969
v 0.122890 -0.254268 1.063001
v 0.861558 -0.123616 1.214503
v 0.861558 -0.115080 0.696207
v 0.861558 -0.115907 1.214504
v 0.861558 -0.102562 0.696207
v 1.153759 -0.113328 0.642328
v 1.153759 -0.113328 0.441019
v 1.153759 -0.104870 0.642328
v 1.153759 -0.104870 0.441019
v -0.515210 -0.234877 -2.244751
v -0.107399 -0.216697 2.244751
v -0.088727 -0.200442 2.244752
v -0.378886 0.284047 -2.178372
v -0.515211 0.227212 -2.244750
v -0.107399 -0.207659 2.244753
v -0.088727 -0.221008 2.244751
v -0.378886 -0.279390 -2.244752
v 0.000000 -0.279390 -2.244752
v 0.000000 -0.227192 2.244751
v 0.000000 0.323635 -1.835417
v 0.000000 -0.194259 2.244752
v -0.515210 -0.234877 -0.994636
v -0.378886 -0.279390 -0.994637
v -0.378886 0.166052 -0.994636
v -0.515210 0.109216 -0.994635
v 0.000000 0.306736 -0.994636
v 0.000000 -0.279390 -0.994637
v -0.189443 -0.279390 -2.244752
v -0.048492 -0.226184 2.244751
v -0.189443 0.323635 -1.835417
v -0.048492 -0.195266 2.244752
v -0.189443 -0.279390 -0.994637
v -0.189443 0.306736 -0.994636
v -0.515210 -0.234877 0.021308
v -0.378886 0.096176 0.005864
v -0.515210 0.014782 0.021308
v 0.000000 0.096176 0.005864
v -0.378886 -0.279390 0.005863
v 0.000000 -0.279390 0.005863
v -0.189443 -0.279390 0.005863
v -0.189443 0.096176 0.005864
v 0.000000 0.284047 -2.178372
v -0.189443 0.284047 -2.178372
v -0.469062 -0.192552 -2.244751
v -0.469062 0.186325 -2.244751
v -0.347447 -0.235775 -2.244752
v -0.347447 0.239952 -2.244751
v -0.213151 -0.235775 -2.244752
v 0.000000 -0.235775 -2.244752
v -0.213151 0.239952 -2.244751
v 0.000000 0.239952 -2.244751
v -0.380271 -0.132371 -2.377495
v -0.380271 0.128725 -2.377494
v -0.315599 -0.157522 -2.377495
v -0.315599 0.160838 -2.377494
v -0.225728 -0.157522 -2.377495
v 0.000000 -0.157522 -2.377495
v -0.225728 0.160838 -2.377494
v 0.000000 0.160838 -2.377494
v -0.583059 -0.136874 0.168900
v -0.583059 -0.082865 0.168900
v -0.628124 -0.049696 -1.626850
v -0.590919 0.088343 -2.229724
v -0.590919 -0.170043 -2.229724
v -0.628124 -0.170043 -1.626850
v -1.463933 -0.094800 -0.635183
v -1.463933 -0.125884 -0.635183
v -1.326284 -0.094114 -1.985151
v -1.326284 -0.126570 -1.985151
v -1.862499 -0.101884 -1.612861
v -1.862499 -0.118091 -1.612861
v -1.862499 -0.101884 -2.503725
v -1.862499 -0.118091 -2.503725
v -0.189443 0.284047 -2.244751
v 0.000000 0.284047 -2.244751
v -0.378886 0.284047 -2.244751
v 0.000000 0.239952 -2.244751
v -0.213151 0.239952 -2.244751
v -0.347447 0.239952 -2.244751
v -0.210558 -0.190089 1.795393
v -0.424506 -0.163482 1.066148
v -0.210558 -0.166061 1.795394
v -0.424506 -0.124463 1.066149
v -0.323758 -0.089646 1.065131
v 0.000000 -0.041051 1.063711
v -0.122845 -0.041529 1.063725
v -0.241778 -0.043984 1.063797
v -0.216194 -0.148316 1.651586
v 0.000000 -0.116410 1.644635
v -0.166370 -0.121071 1.645651
v -0.086263 -0.117169 1.644801
v -0.217014 -0.221584 1.647117
v 0.000000 -0.241246 1.641914
v -0.166698 -0.236696 1.643118
v -0.086432 -0.240506 1.642110
v 0.000000 -0.254744 1.062985
v -0.241870 -0.251821 1.063086
v -0.323971 -0.226352 1.063969
v -0.122890 -0.254268 1.063001
v -0.861558 -0.123616 1.214503
v -0.861558 -0.115080 0.696207
v -0.861558 -0.115907 1.214504
v -0.861558 -0.102562 0.696207
v -1.153759 -0.113328 0.642328
v -1.153759 -0.113328 0.441019
v -1.153759 -0.104870 0.642328
v -1.153759 -0.104870 0.441019
vt 0.667650 0.645483
vt 0.667650 0.646415
vt 0.665724 0.647159
vt 0.665724 0.645039
vt 0.661576 0.644505
vt 0.661576 0.647693
vt 0.656577 0.647796
vt 0.656577 0.644401
vt 0.083847 0.607125
vt 0.083823 0.616198
vt 0.020799 0.612188
vt 0.020802 0.607125
vt 0.484812 0.626701
vt 0.355963 0.626627
vt 0.355973 0.607125
vt 0.484823 0.607125
vt 0.631099 0.540459
vt 0.717179 0.540233
vt 0.717197 0.559813
vt 0.631105 0.559724
vt 0.484793 0.646275
vt 0.355915 0.646133
vt 0.083708 0.624633
vt 0.020781 0.616423
vt 0.253938 0.645605
vt 0.253890 0.626376
vt 0.253870 0.607125
vt 0.526048 0.539674
vt 0.525957 0.559616
vt 0.629567 0.516178
vt 0.752997 0.540147
vt 0.752996 0.559849
vt 0.752933 0.520421
vt 0.670787 0.327958
vt 0.655865 0.328485
vt 0.655853 0.328197
vt 0.670777 0.327698
vt 0.863021 0.381199
vt 0.848966 0.385789
vt 0.845724 0.381292
vt 0.858263 0.376836
vt 0.829434 0.385789
vt 0.831878 0.381292
vt 0.636691 0.329031
vt 0.657640 0.343915
vt 0.636691 0.343690
vt 0.684275 0.331310
vt 0.707692 0.363265
vt 0.690503 0.368060
vt 0.674366 0.346038
vt 0.667086 0.344035
vt 0.863021 0.333558
vt 0.858263 0.337773
vt 0.809902 0.385789
vt 0.809902 0.381292
vt 0.636691 0.328696
vt 0.604370 0.674631
vt 0.597702 0.677224
vt 0.597702 0.644401
vt 0.604370 0.647712
vt 0.588436 0.677224
vt 0.588436 0.644401
vt 0.565164 0.677224
vt 0.565164 0.644401
vt 0.702221 0.390142
vt 0.695873 0.411507
vt 0.680428 0.406918
vt 0.687150 0.384292
vt 0.706220 0.376681
vt 0.689826 0.375284
vt 0.782164 0.147307
vt 0.782166 0.159739
vt 0.701099 0.155161
vt 0.701098 0.151808
vt 0.870979 0.347875
vt 0.870979 0.374515
vt 0.430975 0.111532
vt 0.570450 0.097293
vt 0.624035 0.152694
vt 0.531992 0.152706
vt 0.533442 0.282059
vt 0.347872 0.286564
vt 0.430985 0.195578
vt 0.533410 0.025031
vt 0.327698 0.155791
vt 0.327701 0.150884
vt 0.436071 0.151944
vt 0.436070 0.154768
vt 0.531992 0.154380
vt 0.624035 0.154369
vt 0.570464 0.209782
vt 0.347840 0.020567
vt 0.829434 0.327698
vt 0.848966 0.327698
vt 0.845724 0.332244
vt 0.831878 0.332244
vt 0.809902 0.327698
vt 0.809902 0.332244
vt 0.565689 0.456658
vt 0.565899 0.452641
vt 0.624973 0.453464
vt 0.624906 0.454753
vt 0.144480 0.607125
vt 0.144487 0.619934
vt 0.144511 0.632339
vt 0.664902 0.455788
vt 0.664857 0.456658
vt 0.349956 0.403441
vt 0.327698 0.327698
vt 0.395306 0.388080
vt 0.395307 0.441857
vt 0.524555 0.327698
vt 0.502337 0.403380
vt 0.456802 0.441839
vt 0.456790 0.388072
vt 0.429394 0.347057
vt 0.430773 0.347046
vt 0.427344 0.397178
vt 0.426467 0.397177
vt 0.426495 0.447436
vt 0.426501 0.468316
vt 0.425624 0.468316
vt 0.425618 0.447436
vt 0.645504 0.645483
vt 0.647429 0.645039
vt 0.647429 0.647159
vt 0.645504 0.646415
vt 0.651577 0.644505
vt 0.651577 0.647693
vt 0.020799 0.602063
vt 0.083823 0.598052
vt 0.484812 0.587550
vt 0.355963 0.587623
vt 0.631059 0.578989
vt 0.717139 0.579392
vt 0.355915 0.568117
vt 0.484793 0.567976
vt 0.083708 0.589617
vt 0.020781 0.597828
vt 0.253890 0.587875
vt 0.253938 0.568646
vt 0.526007 0.579559
vt 0.629478 0.603267
vt 0.752956 0.579552
vt 0.752852 0.599277
vt 0.602594 0.327958
vt 0.602604 0.327698
vt 0.617528 0.328197
vt 0.617516 0.328485
vt 0.756784 0.381200
vt 0.761542 0.376836
vt 0.774080 0.381292
vt 0.770839 0.385789
vt 0.787926 0.381292
vt 0.790371 0.385789
vt 0.615741 0.343915
vt 0.589106 0.331310
vt 0.599015 0.346038
vt 0.582878 0.368060
vt 0.565689 0.363265
vt 0.606295 0.344035
vt 0.756784 0.333558
vt 0.761542 0.337773
vt 0.525957 0.674631
vt 0.525957 0.647712
vt 0.532625 0.644401
vt 0.532625 0.677224
vt 0.541891 0.677224
vt 0.541891 0.644401
vt 0.571161 0.390142
vt 0.586231 0.384292
vt 0.592953 0.406918
vt 0.577508 0.411507
vt 0.583555 0.375284
vt 0.567161 0.376681
vt 0.159772 0.020567
vt 0.155280 0.101643
vt 0.151927 0.101643
vt 0.147338 0.020567
vt 0.748826 0.374515
vt 0.748826 0.347875
vt 0.195590 0.371768
vt 0.154403 0.270755
vt 0.154403 0.178713
vt 0.209811 0.232291
vt 0.025049 0.269321
vt 0.111543 0.371767
vt 0.020567 0.454891
vt 0.282078 0.269321
vt 0.151202 0.475044
vt 0.152287 0.366681
vt 0.155111 0.366681
vt 0.156109 0.475044
vt 0.152729 0.270755
vt 0.152729 0.178713
vt 0.097322 0.232291
vt 0.286564 0.454891
vt 0.790371 0.327698
vt 0.787926 0.332244
vt 0.774080 0.332244
vt 0.770839 0.327698
vt 0.632210 0.739208
vt 0.627174 0.798598
vt 0.625876 0.798597
vt 0.628163 0.739206
vt 0.144487 0.594316
vt 0.144511 0.581911
vt 0.626982 0.838836
vt 0.626105 0.838836
vt 0.550448 0.903702
vt 0.595793 0.865292
vt 0.595791 0.919060
vt 0.528194 0.979433
vt 0.725021 0.979433
vt 0.657266 0.919068
vt 0.657278 0.865310
vt 0.702807 0.903763
vt 0.628752 0.960180
vt 0.626925 0.909964
vt 0.627802 0.909963
vt 0.630133 0.960220
vt 0.626976 0.859713
vt 0.626099 0.859713
vt 0.144093 0.784616
vt 0.252578 0.765346
vt 0.255099 0.781277
vt 0.144963 0.794378
vt 0.144970 0.806748
vt 0.255126 0.800411
vt 0.254763 0.819535
vt 0.144971 0.819543
vt 0.356359 0.764691
vt 0.486402 0.764600
vt 0.479958 0.780135
vt 0.356950 0.779990
vt 0.236505 0.754744
vt 0.419617 0.739206
vt 0.484770 0.661084
vt 0.355854 0.660904
vt 0.483459 0.748327
vt 0.252315 0.660162
vt 0.083222 0.630139
vt 0.020761 0.618425
vt 0.143439 0.773528
vt 0.143753 0.653646
vt 0.236988 0.671922
vt 0.236067 0.677475
vt 0.143087 0.657658
vt 0.067350 0.631039
vt 0.421472 0.686858
vt 0.420866 0.674431
vt 0.483237 0.671391
vt 0.484538 0.698072
vt 0.480163 0.819399
vt 0.480122 0.799743
vt 0.487012 0.799704
vt 0.487060 0.819395
vt 0.486842 0.780007
vt 0.066834 0.633497
vt 0.020567 0.619350
vt 0.082667 0.796307
vt 0.083735 0.802169
vt 0.067550 0.796992
vt 0.083873 0.810539
vt 0.083900 0.819543
vt 0.020567 0.808168
vt 0.020683 0.810253
vt 0.020755 0.814483
vt 0.020769 0.819542
vt 0.144348 0.641300
vt 0.144091 0.854470
vt 0.144960 0.844708
vt 0.255063 0.857783
vt 0.252558 0.873715
vt 0.144968 0.832339
vt 0.255066 0.838654
vt 0.356423 0.874246
vt 0.357001 0.858938
vt 0.480006 0.858663
vt 0.486468 0.874192
vt 0.419716 0.899663
vt 0.236497 0.884331
vt 0.355854 0.553347
vt 0.484770 0.553167
vt 0.483544 0.890467
vt 0.252315 0.554088
vt 0.083222 0.584112
vt 0.020761 0.595825
vt 0.143437 0.865557
vt 0.143753 0.560605
vt 0.143087 0.556592
vt 0.236067 0.536776
vt 0.236988 0.542329
vt 0.067350 0.583212
vt 0.421472 0.527393
vt 0.484538 0.516178
vt 0.483237 0.542859
vt 0.420866 0.539820
vt 0.487036 0.839085
vt 0.480146 0.839055
vt 0.486890 0.858783
vt 0.020567 0.594901
vt 0.066834 0.580754
vt 0.082666 0.842778
vt 0.083734 0.836916
vt 0.067550 0.842093
vt 0.083873 0.828546
vt 0.020567 0.830917
vt 0.020683 0.828832
vt 0.020755 0.824601
vt 0.144348 0.572951
vn -0.000000 -0.000100 1.000000
vn -0.000000 -0.000000 1.000000
vn 0.012900 -0.999600 0.023900
vn 0.000000 -1.000000 0.000000
vn 0.000000 0.999800 0.020100
vn 0.074100 -0.996700 0.032000
vn -0.000000 0.978600 0.205900
vn 0.587900 0.791600 0.166600
vn 0.000000 0.993400 -0.114700
vn 0.000000 0.000000 -1.000000
vn 0.000000 0.859000 -0.512000
vn 0.831200 0.000000 -0.556000
vn 0.349300 0.758900 -0.549500
vn 0.000000 -0.861500 -0.507800
vn 0.289400 -0.788500 -0.542700
vn -0.456600 0.000000 -0.889700
vn 0.194700 0.000000 -0.980900
vn 0.016300 -0.999900 -0.000700
vn 0.031100 0.999300 0.019200
vn 0.059300 -0.998200 -0.005500
vn 0.674200 0.000000 0.738600
vn 1.000000 0.000000 0.000000
vn 0.014900 0.999900 -0.000600
vn -0.695200 0.000000 -0.718800
vn 0.926000 0.000000 0.377500
vn 0.060600 0.998100 -0.005700
vn 0.030000 -0.999400 0.019200
vn -0.646100 0.000000 -0.763300
vn 0.005800 -0.999700 0.023700
vn 0.031200 -0.999100 0.027900
vn 0.001500 -0.999700 0.023600
vn 0.007900 -0.999600 0.025700
vn -0.657800 0.000000 -0.753200
vn -0.032600 0.998700 0.038400
vn 0.094800 -0.995400 -0.011800
vn 0.665800 -0.000000 0.746100
vn 0.011300 0.999800 0.018500
vn 0.890600 -0.000000 0.454800
vn 0.003800 -0.999900 -0.011900
vn 0.471700 0.879800 0.058600
vn -0.012900 -0.999600 0.023900
vn -0.074100 -0.996700 0.032000
vn -0.587900 0.791600 0.166600
vn -0.831200 0.000000 -0.556000
vn -0.349300 0.758900 -0.549500
vn -0.289400 -0.788500 -0.542700
vn 0.456600 0.000000 -0.889700
vn -0.194700 0.000000 -0.980900
vn -0.016300 -0.999900 -0.000700
vn -0.031100 0.999300 0.019200
vn -0.059300 -0.998200 -0.005500
vn -0.674200 0.000000 0.738600
vn -1.000000 0.000000 0.000000
vn -0.014900 0.999900 -0.000600
vn 0.695200 0.000000 -0.718800
vn -0.926000 0.000000 0.377500
vn -0.060600 0.998100 -0.005700
vn -0.030000 -0.999400 0.019200
vn 0.646100 0.000000 -0.763300
vn -0.005800 -0.999700 0.023700
vn -0.031200 -0.999100 0.027900
vn -0.001500 -0.999700 0.023600
vn -0.007900 -0.999600 0.025700
vn 0.657800 0.000000 -0.753200
vn 0.032600 0.998700 0.038400
vn -0.094800 -0.995400 -0.011800
vn -0.665800 -0.000000 0.746100
vn -0.011300 0.999800 0.018500
vn -0.890600 -0.000000 0.454800
vn -0.003800 -0.999900 -0.011900
vn -0.471700 0.879800 0.058600
vn 0.441600 0.882200 0.163500
vn 0.649900 0.753700 0.097100
vn 0.249700 0.961600 0.113800
vn 0.255200 0.953900 0.157900
vn 0.011700 0.991400 0.130500
vn 0.024100 0.990100 0.138100
vn 0.000000 0.985800 0.167500
vn 0.000000 0.991600 0.129000
vn 0.667600 0.741900 0.062100
vn 0.533700 0.573700 -0.621300
vn 0.241600 0.970200 0.013300
vn 0.464400 0.880400 0.095700
vn 0.768800 0.553300 0.320600
vn 0.715800 0.652000 -0.250000
vn 0.116200 -0.730100 -0.673400
vn 0.347600 -0.654400 -0.671400
vn 0.511900 -0.859000 0.009000
vn 0.157100 -0.987500 0.000000
vn 0.791600 0.196900 -0.578400
vn 0.515300 -0.856100 0.037700
vn 0.162400 -0.986400 0.022100
vn 0.452600 -0.886200 0.098500
vn 0.577700 -0.496300 0.648000
vn 0.115100 -0.691600 0.713100
vn 0.166000 -0.985100 0.045200
vn 0.317100 0.945800 -0.069700
vn 0.475500 -0.874400 -0.095700
vn 0.794700 -0.530400 0.295100
vn 0.856400 -0.400600 0.325600
vn 0.482700 -0.834900 -0.264600
vn 0.730600 -0.365600 -0.576600
vn 0.000000 0.998300 -0.057400
vn 0.000000 0.707100 -0.707100
vn 0.146500 0.731900 -0.665500
vn 0.589400 0.711700 0.382100
vn 0.613800 0.404000 0.678200
vn 0.373400 0.913900 0.159000
vn 0.256500 0.953700 0.157100
vn 0.031000 0.990700 0.132100
vn 0.000000 0.991600 0.129100
vn 0.168000 0.652300 0.739100
vn 0.028600 0.670500 0.741400
vn 0.000000 0.664700 0.747100
vn 0.461000 -0.882500 0.092900
vn 0.158400 -0.986300 0.045000
vn -0.441600 0.882200 0.163500
vn -0.255200 0.953900 0.157900
vn -0.249700 0.961600 0.113800
vn -0.649900 0.753700 0.097100
vn -0.011700 0.991400 0.130500
vn -0.024100 0.990100 0.138100
vn -0.667600 0.741900 0.062100
vn -0.464400 0.880400 0.095700
vn -0.241600 0.970200 0.013300
vn -0.533700 0.573700 -0.621300
vn -0.715800 0.652000 -0.250000
vn -0.768800 0.553300 0.320600
vn -0.116200 -0.730100 -0.673400
vn -0.157100 -0.987500 0.000000
vn -0.511900 -0.859000 0.009000
vn -0.347600 -0.654400 -0.671400
vn -0.791600 0.196900 -0.578400
vn -0.162400 -0.986400 0.022100
vn -0.515300 -0.856100 0.037700
vn -0.452600 -0.886200 0.098500
vn -0.166000 -0.985100 0.045200
vn -0.115100 -0.691600 0.713100
vn -0.577700 -0.496300 0.648000
vn -0.317100 0.945800 -0.069700
vn -0.475500 -0.874400 -0.095700
vn -0.794700 -0.530400 0.295100
vn -0.856400 -0.400600 0.325600
vn -0.730600 -0.365600 -0.576600
vn -0.482700 -0.834900 -0.264600
vn -0.146500 0.731900 -0.665500
vn -0.613800 0.404000 0.678200
vn -0.589400 0.711700 0.382100
vn -0.373400 0.913900 0.159000
vn -0.256500 0.953700 0.157100
vn -0.031000 0.990700 0.132100
vn -0.168000 0.652300 0.739100
vn -0.028600 0.670500 0.741400
vn -0.461000 -0.882500 0.092900
vn -0.158400 -0.986300 0.045000
usemtl Material
s off
f 2/1/1 6/2/1 3/3/1 7/4/1
f 14/5/2 16/6/2 91/7/2 89/8/2
f 163/9/3 68/10/3 14/11/3 89/12/3
f 13/13/4 17/14/4 97/15/4 88/16/4
f 18/17/5 15/18/5 90/19/5 96/20/5
f 13/13/4 8/21/4 10/22/4 17/14/4
f 67/23/6 7/24/6 14/11/6 68/10/6
f 7/4/2 3/3/2 16/6/2 14/5/2
f 17/14/4 10/22/4 22/25/4 23/26/4
f 97/15/4 17/14/4 23/26/4 109/27/4
f 24/28/7 18/17/7 96/20/7 107/29/7
f 11/30/8 18/17/8 24/28/8
f 15/18/9 25/31/9 112/32/9 90/19/9
f 15/18/9 4/33/9 25/31/9
f 29/34/2 31/35/2 54/36/2 55/37/2
f 1/38/10 8/39/10 28/40/10 26/41/10
f 8/39/10 13/42/10 30/43/10 28/40/10
f 121/44/11 31/35/11 37/45/11 129/46/11
f 27/47/12 26/48/12 32/49/12 33/50/12
f 29/34/13 27/47/13 33/50/13 35/51/13
f 5/52/10 1/38/10 26/41/10 27/53/10
f 13/42/10 88/54/10 119/55/10 30/43/10
f 31/35/2 121/44/2 147/56/2 54/36/2
f 32/57/10 34/58/10 35/59/10 33/60/10
f 36/61/10 37/62/10 35/59/10 34/58/10
f 127/63/10 129/64/10 37/62/10 36/61/10
f 30/65/14 119/66/14 127/67/14 36/68/14
f 26/48/15 28/69/15 34/70/15 32/49/15
f 31/35/11 29/34/11 35/51/11 37/45/11
f 28/69/14 30/65/14 36/68/14 34/70/14
f 43/71/16 40/72/16 46/73/16 47/74/16
f 1/38/17 5/52/17 41/75/17 42/76/17
f 45/77/18 47/78/18 51/79/18 49/80/18
f 40/81/19 39/82/19 44/83/19
f 43/84/20 47/78/20 45/77/20
f 39/85/21 38/86/21 45/87/21 44/88/21
f 48/89/22 49/80/22 51/79/22 50/90/22
f 46/91/23 44/83/23 48/89/23 50/90/23
f 47/74/24 46/73/24 50/90/24 51/79/24
f 44/88/25 45/87/25 49/80/25 48/89/25
f 46/91/26 40/81/26 44/83/26
f 38/92/27 43/84/27 45/77/27
f 52/93/10 53/94/10 55/95/10 54/96/10
f 145/97/10 52/93/10 54/96/10 147/98/10
f 53/94/10 5/52/10 27/53/10 55/95/10
f 57/99/28 59/100/28 75/101/28 73/102/28
f 166/103/29 71/104/29 68/10/29 163/9/29
f 69/105/30 67/23/30 68/10/30 71/104/30
f 109/27/31 23/26/31 71/104/31 166/103/31
f 22/25/32 69/105/32 71/104/32 23/26/32
f 73/102/33 75/101/33 79/106/33 77/107/33
f 59/108/34 58/109/34 74/110/34 75/111/34
f 56/112/35 57/113/35 73/114/35 72/115/35
f 58/116/36 56/117/36 72/118/36 74/119/36
f 76/120/22 77/121/22 79/122/22 78/123/22
f 75/111/37 74/110/37 78/123/37 79/122/37
f 74/119/38 72/118/38 76/120/38 78/123/38
f 72/115/39 73/114/39 77/121/39 76/120/39
f 18/17/40 11/30/40 4/33/40 15/18/40
f 81/124/1 86/125/1 82/126/1 85/127/1
f 99/128/2 89/8/2 91/7/2 101/129/2
f 163/9/41 89/12/41 99/130/41 165/131/41
f 98/132/4 88/16/4 97/15/4 102/133/4
f 103/134/5 96/20/5 90/19/5 100/135/5
f 98/132/4 102/133/4 93/136/4 87/137/4
f 164/138/42 165/131/42 99/130/42 86/139/42
f 86/125/2 99/128/2 101/129/2 82/126/2
f 102/133/4 110/140/4 108/141/4 93/136/4
f 97/15/4 109/27/4 110/140/4 102/133/4
f 111/142/7 107/29/7 96/20/7 103/134/7
f 94/143/43 111/142/43 103/134/43
f 100/135/9 90/19/9 112/32/9 113/144/9
f 100/135/9 113/144/9 83/145/9
f 117/146/2 149/147/2 148/148/2 120/149/2
f 80/150/10 114/151/10 116/152/10 87/153/10
f 87/153/10 116/152/10 118/154/10 98/155/10
f 121/44/11 129/46/11 128/156/11 120/149/11
f 115/157/44 123/158/44 122/159/44 114/160/44
f 117/146/45 125/161/45 123/158/45 115/157/45
f 84/162/10 115/163/10 114/151/10 80/150/10
f 98/155/10 118/154/10 119/55/10 88/54/10
f 120/149/2 148/148/2 147/56/2 121/44/2
f 122/164/10 123/165/10 125/166/10 124/167/10
f 126/168/10 124/167/10 125/166/10 128/169/10
f 127/63/10 126/168/10 128/169/10 129/64/10
f 118/170/14 126/171/14 127/172/14 119/173/14
f 114/160/46 122/159/46 124/174/46 116/175/46
f 120/149/11 128/156/11 125/161/11 117/146/11
f 116/175/14 124/174/14 126/171/14 118/170/14
f 135/176/47 139/177/47 138/178/47 132/179/47
f 80/150/48 134/180/48 133/181/48 84/162/48
f 137/182/49 141/183/49 143/184/49 139/185/49
f 132/186/50 136/187/50 131/188/50
f 135/189/51 137/182/51 139/185/51
f 131/190/52 136/191/52 137/192/52 130/193/52
f 140/194/53 142/195/53 143/184/53 141/183/53
f 138/196/54 142/195/54 140/194/54 136/187/54
f 139/177/55 143/184/55 142/195/55 138/178/55
f 136/191/56 140/194/56 141/183/56 137/192/56
f 138/196/57 136/187/57 132/186/57
f 130/197/58 137/182/58 135/189/58
f 144/198/10 148/199/10 149/200/10 146/201/10
f 145/97/10 147/98/10 148/199/10 144/198/10
f 146/201/10 149/200/10 115/163/10 84/162/10
f 151/202/59 171/203/59 173/204/59 153/205/59
f 166/103/60 163/9/60 165/131/60 169/206/60
f 167/207/61 169/206/61 165/131/61 164/138/61
f 109/27/62 166/103/62 169/206/62 110/140/62
f 108/141/63 110/140/63 169/206/63 167/207/63
f 171/203/64 175/208/64 177/209/64 173/204/64
f 153/210/65 173/211/65 172/212/65 152/213/65
f 150/214/66 170/215/66 171/216/66 151/217/66
f 152/218/67 172/219/67 170/220/67 150/221/67
f 174/222/53 176/223/53 177/209/53 175/208/53
f 173/211/68 177/209/68 176/223/68 172/212/68
f 172/219/69 176/223/69 174/222/69 170/220/69
f 170/215/70 174/222/70 175/208/70 171/216/70
f 103/134/71 100/135/71 83/145/71 94/143/71
s 1
f 60/224/72 21/225/73 20/226/74 62/227/75
f 61/228/76 24/229/77 107/230/78 155/231/79
f 12/232/80 5/233/81 4/234/82 11/235/83
f 12/232/80 21/225/73 39/236/84 40/237/85
f 8/21/86 1/238/87 9/239/88 10/22/89
f 62/227/75 20/226/74 24/229/77 61/228/76
f 21/225/73 12/232/80 11/235/83 20/226/74
f 5/233/81 12/232/80 40/237/85 41/240/90
f 10/22/89 9/239/88 19/241/91 22/25/92
f 66/242/93 2/243/94 7/24/95 67/23/96
f 20/226/74 11/235/83 24/229/77
f 60/224/72 59/244/97 39/236/84 21/225/73
f 57/245/98 38/246/99 39/247/84 59/248/97
f 2/243/94 66/242/93 56/249/100
f 40/250/85 43/251/101 42/252/102 41/253/90
f 1/238/87 42/252/102 43/251/101 9/239/88
f 9/239/88 43/251/101 38/246/99 19/241/91
f 112/254/103 25/255/103 52/256/104 145/257/104
f 25/255/103 4/234/82 53/258/105 52/256/104
f 4/234/82 5/233/81 53/258/105
f 2/243/94 56/249/100 58/259/106 6/260/107
f 63/261/108 60/224/72 62/227/75 64/262/109
f 58/263/106 59/244/97 60/224/72 63/261/108
f 64/262/109 62/227/75 61/228/76 65/264/110
f 65/264/110 61/228/76 155/231/79 159/265/111
f 6/266/107 58/263/106 63/261/108
f 3/267/112 64/262/109 65/264/110 16/268/113
f 16/268/113 65/264/110 159/265/111 91/269/114
f 6/266/107 63/261/108 64/262/109 3/267/112
f 70/270/115 66/242/93 67/23/96 69/105/116
f 66/242/93 70/270/115 57/245/98 56/249/100
f 70/270/115 19/241/91 38/246/99 57/245/98
f 19/241/91 70/270/115 69/105/116 22/25/92
f 154/271/117 157/272/118 105/273/119 106/274/120
f 156/275/121 155/231/79 107/230/78 111/276/122
f 95/277/123 94/278/124 83/279/125 84/280/126
f 95/277/123 132/281/127 131/282/128 106/274/120
f 87/137/129 93/136/130 92/283/131 80/284/132
f 157/272/118 156/275/121 111/276/122 105/273/119
f 106/274/120 105/273/119 94/278/124 95/277/123
f 84/280/126 133/285/133 132/281/127 95/277/123
f 93/136/130 108/141/134 104/286/135 92/283/131
f 162/287/136 164/138/137 86/139/138 81/288/139
f 105/273/119 111/276/122 94/278/124
f 154/271/117 106/274/120 131/282/128 153/289/140
f 151/290/141 153/291/140 131/292/128 130/293/142
f 81/288/139 150/294/143 162/287/136
f 132/295/127 133/296/133 134/297/144 135/298/145
f 80/284/132 92/283/131 135/298/145 134/297/144
f 92/283/131 104/286/135 130/293/142 135/298/145
f 112/254/103 145/257/104 144/299/104 113/300/103
f 113/300/103 144/299/104 146/301/146 83/279/125
f 83/279/125 146/301/146 84/280/126
f 81/288/139 85/302/147 152/303/148 150/294/143
f 158/304/149 160/305/150 157/272/118 154/271/117
f 152/306/148 158/304/149 154/271/117 153/289/140
f 160/305/150 161/307/151 156/275/121 157/272/118
f 161/307/151 159/265/111 155/231/79 156/275/121
f 85/308/147 158/304/149 152/306/148
f 82/309/152 101/310/153 161/307/151 160/305/150
f 101/310/153 91/269/114 159/265/111 161/307/151
f 85/308/147 82/309/152 160/305/150 158/304/149
f 168/311/154 167/207/155 164/138/137 162/287/136
f 162/287/136 150/294/143 151/290/141 168/311/154
f 168/311/154 151/290/141 130/293/142 104/286/135
f 104/286/135 108/141/134 167/207/155 168/311/154
